<mxfile host="65bd71144e">
    <diagram id="yJQCKHnWqSj0qzvx5GCp" name="Page-1">
        <mxGraphModel dx="1893" dy="1113" grid="0" gridSize="10" guides="1" tooltips="1" connect="1" arrows="1" fold="1" page="1" pageScale="1" pageWidth="1920" pageHeight="1200" math="0" shadow="0">
            <root>
                <mxCell id="0"/>
                <mxCell id="1" parent="0"/>
                <mxCell id="29" value="" style="rounded=1;whiteSpace=wrap;html=1;fillColor=#dae8fc;strokeColor=#6c8ebf;" vertex="1" parent="1">
                    <mxGeometry x="192" y="9" width="1406" height="437" as="geometry"/>
                </mxCell>
                <mxCell id="4" value="" style="rounded=1;whiteSpace=wrap;html=1;" vertex="1" parent="1">
                    <mxGeometry x="550" y="35" width="270" height="60" as="geometry"/>
                </mxCell>
                <mxCell id="5" value="User Interface&lt;div&gt;&lt;span style=&quot;background-color: transparent;&quot;&gt;(Frontend/app.py)&lt;/span&gt;&lt;/div&gt;" style="text;html=1;align=center;verticalAlign=middle;whiteSpace=wrap;rounded=0;" vertex="1" parent="1">
                    <mxGeometry x="610" y="50" width="170" height="30" as="geometry"/>
                </mxCell>
                <mxCell id="6" style="edgeStyle=none;html=1;exitX=0.5;exitY=1;exitDx=0;exitDy=0;entryX=0.5;entryY=0;entryDx=0;entryDy=0;" edge="1" parent="1" source="4" target="7">
                    <mxGeometry relative="1" as="geometry"/>
                </mxCell>
                <mxCell id="7" value="" style="rounded=1;whiteSpace=wrap;html=1;" vertex="1" parent="1">
                    <mxGeometry x="550" y="160" width="270" height="60" as="geometry"/>
                </mxCell>
                <mxCell id="8" value="&lt;div&gt;&lt;font color=&quot;#000000&quot;&gt;Flask App&lt;/font&gt;&lt;/div&gt;&lt;div&gt;(Backend/routes.py)&lt;/div&gt;" style="text;html=1;align=center;verticalAlign=middle;whiteSpace=wrap;rounded=0;" vertex="1" parent="1">
                    <mxGeometry x="610" y="175" width="170" height="30" as="geometry"/>
                </mxCell>
                <mxCell id="9" style="edgeStyle=none;html=1;exitX=0;exitY=0.75;exitDx=0;exitDy=0;entryX=0.438;entryY=0.002;entryDx=0;entryDy=0;entryPerimeter=0;" edge="1" parent="1" source="7" target="10">
                    <mxGeometry relative="1" as="geometry">
                        <mxPoint x="680" y="230" as="sourcePoint"/>
                        <mxPoint x="380" y="276" as="targetPoint"/>
                        <Array as="points">
                            <mxPoint x="390" y="200"/>
                        </Array>
                    </mxGeometry>
                </mxCell>
                <mxCell id="10" value="" style="rounded=1;whiteSpace=wrap;html=1;" vertex="1" parent="1">
                    <mxGeometry x="270" y="280" width="270" height="140" as="geometry"/>
                </mxCell>
                <mxCell id="11" value="&lt;div&gt;&lt;span style=&quot;background-color: transparent;&quot;&gt;ReACT Agent&lt;/span&gt;&lt;/div&gt;&lt;div&gt;&lt;span style=&quot;background-color: transparent;&quot;&gt;(notion_react_agent.py)&lt;/span&gt;&lt;/div&gt;&lt;div&gt;&lt;span style=&quot;background-color: transparent;&quot;&gt;&lt;br&gt;&lt;/span&gt;&lt;/div&gt;&lt;div&gt;&lt;span style=&quot;background-color: transparent;&quot;&gt;- Uses multiple tools&lt;/span&gt;&lt;/div&gt;&lt;div&gt;&lt;span style=&quot;background-color: transparent;&quot;&gt;- Decides action based on user query&lt;/span&gt;&lt;/div&gt;&lt;div&gt;&lt;span style=&quot;background-color: transparent;&quot;&gt;&lt;br&gt;&lt;/span&gt;&lt;/div&gt;" style="text;html=1;align=center;verticalAlign=middle;whiteSpace=wrap;rounded=0;" vertex="1" parent="1">
                    <mxGeometry x="290" y="295" width="230" height="105" as="geometry"/>
                </mxCell>
                <mxCell id="13" value="" style="rounded=1;whiteSpace=wrap;html=1;" vertex="1" parent="1">
                    <mxGeometry x="590" y="277.5" width="270" height="140" as="geometry"/>
                </mxCell>
                <mxCell id="14" value="&lt;div&gt;&lt;span style=&quot;background-color: transparent;&quot;&gt;Chat Memory DB &amp;amp; Kaggle Data&lt;/span&gt;&lt;/div&gt;&lt;div&gt;&lt;span style=&quot;background-color: transparent;&quot;&gt;(SQlList)&lt;/span&gt;&lt;/div&gt;&lt;div&gt;&lt;span style=&quot;background-color: transparent;&quot;&gt;&lt;br&gt;&lt;/span&gt;&lt;/div&gt;&lt;div&gt;&lt;span style=&quot;background-color: transparent;&quot;&gt;- Logs Chat&lt;/span&gt;&lt;/div&gt;&lt;div&gt;- Retains Kaggle CSV&lt;/div&gt;" style="text;html=1;align=center;verticalAlign=middle;whiteSpace=wrap;rounded=0;" vertex="1" parent="1">
                    <mxGeometry x="610" y="292.5" width="230" height="105" as="geometry"/>
                </mxCell>
                <mxCell id="15" style="edgeStyle=none;html=1;entryX=0.672;entryY=1.081;entryDx=0;entryDy=0;entryPerimeter=0;" edge="1" parent="1" target="7">
                    <mxGeometry relative="1" as="geometry">
                        <mxPoint x="731" y="270" as="sourcePoint"/>
                    </mxGeometry>
                </mxCell>
                <mxCell id="16" value="" style="rounded=1;whiteSpace=wrap;html=1;" vertex="1" parent="1">
                    <mxGeometry x="960" y="275" width="270" height="140" as="geometry"/>
                </mxCell>
                <mxCell id="17" value="&lt;div&gt;&lt;span style=&quot;background-color: transparent;&quot;&gt;Ingest data pipeline&lt;/span&gt;&lt;/div&gt;&lt;div&gt;(run_ingest_pipeline)&lt;/div&gt;&lt;div&gt;&lt;span style=&quot;background-color: transparent;&quot;&gt;- Uses Langchain for document processing framework, extracts data from Kaggle &amp;amp; Scrapes DOS&lt;/span&gt;&lt;/div&gt;&lt;div&gt;&lt;span style=&quot;background-color: transparent;&quot;&gt;&lt;br&gt;&lt;/span&gt;&lt;/div&gt;&lt;div&gt;&lt;span style=&quot;background-color: transparent;&quot;&gt;&lt;br&gt;&lt;/span&gt;&lt;/div&gt;" style="text;html=1;align=center;verticalAlign=middle;whiteSpace=wrap;rounded=0;" vertex="1" parent="1">
                    <mxGeometry x="980" y="290" width="230" height="105" as="geometry"/>
                </mxCell>
                <mxCell id="19" value="" style="rounded=1;whiteSpace=wrap;html=1;" vertex="1" parent="1">
                    <mxGeometry x="1320" y="280" width="270" height="140" as="geometry"/>
                </mxCell>
                <mxCell id="20" value="&lt;div&gt;&lt;span style=&quot;background-color: transparent;&quot;&gt;Rag_chain.py&lt;/span&gt;&lt;/div&gt;&lt;div&gt;Uses Langchain RunnableMap to preform Rag with X number of results&lt;/div&gt;" style="text;html=1;align=center;verticalAlign=middle;whiteSpace=wrap;rounded=0;" vertex="1" parent="1">
                    <mxGeometry x="1340" y="295" width="230" height="105" as="geometry"/>
                </mxCell>
                <mxCell id="23" value="" style="endArrow=classic;html=1;exitX=1;exitY=0.5;exitDx=0;exitDy=0;" edge="1" parent="1" source="10">
                    <mxGeometry width="50" height="50" relative="1" as="geometry">
                        <mxPoint x="820" y="400" as="sourcePoint"/>
                        <mxPoint x="590" y="350" as="targetPoint"/>
                    </mxGeometry>
                </mxCell>
                <mxCell id="25" style="edgeStyle=none;html=1;entryX=0.33;entryY=-0.024;entryDx=0;entryDy=0;entryPerimeter=0;exitX=0.466;exitY=1.004;exitDx=0;exitDy=0;exitPerimeter=0;" edge="1" parent="1" source="7" target="13">
                    <mxGeometry relative="1" as="geometry">
                        <mxPoint x="741" y="280" as="sourcePoint"/>
                        <mxPoint x="741" y="235" as="targetPoint"/>
                    </mxGeometry>
                </mxCell>
                <mxCell id="26" style="edgeStyle=none;html=1;entryX=0.5;entryY=0;entryDx=0;entryDy=0;exitX=1;exitY=0.5;exitDx=0;exitDy=0;" edge="1" parent="1" source="7" target="16">
                    <mxGeometry relative="1" as="geometry">
                        <mxPoint x="741" y="280" as="sourcePoint"/>
                        <mxPoint x="741" y="235" as="targetPoint"/>
                        <Array as="points">
                            <mxPoint x="1095" y="190"/>
                        </Array>
                    </mxGeometry>
                </mxCell>
                <mxCell id="27" value="As a DHS employee, I want to use natural lanaguage processing to query human rights issues and produce draft summary reports publishing them to a shared online location for team reaview." style="text;html=1;align=center;verticalAlign=middle;whiteSpace=wrap;rounded=0;fontSize=16;fillColor=#ffe6cc;strokeColor=#d79b00;" vertex="1" parent="1">
                    <mxGeometry x="947" y="32" width="480" height="90" as="geometry"/>
                </mxCell>
                <mxCell id="28" value="&lt;h1 style=&quot;margin-top: 0px;&quot;&gt;&lt;span style=&quot;background-color: transparent;&quot;&gt;Issues&amp;nbsp;&lt;/span&gt;&lt;/h1&gt;&lt;h1 style=&quot;margin-top: 0px;&quot;&gt;&lt;span style=&quot;background-color: transparent; font-size: 12px; font-weight: normal;&quot;&gt;1. Kaggle only downloads to root of folder but the run_ingest_pipeline was looking in the backend for the files to chunk&amp;amp; embed.&lt;/span&gt;&lt;/h1&gt;&lt;div&gt;&lt;span style=&quot;background-color: transparent; font-size: 12px; font-weight: normal;&quot;&gt;Solution: Dowload to front end and then move the folders to backend&lt;/span&gt;&lt;/div&gt;&lt;div&gt;&lt;span style=&quot;background-color: transparent; font-size: 12px; font-weight: normal;&quot;&gt;&lt;br&gt;&lt;/span&gt;&lt;/div&gt;&lt;div&gt;&lt;span style=&quot;background-color: transparent; font-size: 12px; font-weight: normal;&quot;&gt;2.&amp;nbsp;&lt;/span&gt;&lt;span style=&quot;color: rgb(0, 0, 0); font-family: &amp;quot;Helvetica Neue&amp;quot;; font-size: 11px; background-color: transparent;&quot;&gt;The Department of State (DOS) scraper was failing to find and download PDF reports for the 20 target countries from the Human Rights Reports website. The scraper was returning &quot;Found 0 target country links&quot; despite the website containing the expected country report pages.&amp;nbsp;&lt;/span&gt;&lt;/div&gt;&lt;div&gt;&lt;span style=&quot;color: rgb(0, 0, 0); font-family: &amp;quot;Helvetica Neue&amp;quot;; font-size: 11px; background-color: transparent;&quot;&gt;&lt;br&gt;&lt;/span&gt;&lt;/div&gt;&lt;div&gt;&lt;span style=&quot;color: rgb(0, 0, 0); font-family: &amp;quot;Helvetica Neue&amp;quot;; font-size: 11px; background-color: transparent;&quot;&gt;Solution: Returned a Forbidden - had to add headers to mimig real user requests&lt;/span&gt;&lt;/div&gt;&lt;div&gt;&lt;span style=&quot;background-color: transparent; font-family: &amp;quot;Helvetica Neue&amp;quot;; font-size: 11px;&quot;&gt;Narrow down loads from all to top 20&lt;/span&gt;&lt;/div&gt;&lt;div&gt;&lt;span style=&quot;background-color: transparent; font-family: &amp;quot;Helvetica Neue&amp;quot;; font-size: 11px;&quot;&gt;URL pattern issues - flexible URL pattern matching and proper contry matching&amp;nbsp;&lt;/span&gt;&lt;/div&gt;&lt;div&gt;&lt;span style=&quot;background-color: transparent; font-family: &amp;quot;Helvetica Neue&amp;quot;; font-size: 11px;&quot;&gt;&lt;br&gt;&lt;/span&gt;&lt;/div&gt;&lt;div&gt;&lt;span style=&quot;background-color: transparent; font-family: &amp;quot;Helvetica Neue&amp;quot;; font-size: 11px;&quot;&gt;3. Notion Post API Issues&lt;/span&gt;&lt;/div&gt;&lt;div&gt;&lt;font face=&quot;Helvetica Neue&quot;&gt;&lt;span style=&quot;font-size: 11px;&quot;&gt;Pytdantic compatability issues - Notion API respones didn&#39;t work with the Pydantic models.&amp;nbsp; Switched from @tool decoration to the Tool class.&amp;nbsp; Not sure this really helped because in the end the final solution was to separate the post to Notion in a subsequent function outside the ReAct Agent&lt;/span&gt;&lt;/font&gt;&lt;/div&gt;&lt;div&gt;&lt;font face=&quot;Helvetica Neue&quot;&gt;&lt;span style=&quot;font-size: 11px;&quot;&gt;&lt;br&gt;&lt;/span&gt;&lt;/font&gt;&lt;/div&gt;&lt;div&gt;&lt;font face=&quot;Helvetica Neue&quot;&gt;&lt;span style=&quot;font-size: 11px;&quot;&gt;4. ReACt Agent&lt;/span&gt;&lt;/font&gt;&lt;/div&gt;&lt;div&gt;&lt;font face=&quot;Helvetica Neue&quot;&gt;&lt;span style=&quot;font-size: 11px;&quot;&gt;- Lots of iterations&lt;/span&gt;&lt;/font&gt;&lt;/div&gt;&lt;div&gt;&lt;font face=&quot;Helvetica Neue&quot;&gt;&lt;span style=&quot;font-size: 11px;&quot;&gt;Aent refused to help - maybe LLM choice? Looked like issue was more persistant with front end.&lt;/span&gt;&lt;/font&gt;&lt;/div&gt;&lt;div&gt;&lt;font face=&quot;Helvetica Neue&quot;&gt;&lt;span style=&quot;font-size: 11px;&quot;&gt;Extended the time to exire to 10 min but the script still failed. Maybe need to switch to FastAPI?&lt;/span&gt;&lt;/font&gt;&lt;/div&gt;&lt;div&gt;&lt;font face=&quot;Helvetica Neue&quot;&gt;&lt;span style=&quot;font-size: 11px;&quot;&gt;&lt;br&gt;&lt;/span&gt;&lt;/font&gt;&lt;/div&gt;" style="text;html=1;whiteSpace=wrap;overflow=hidden;rounded=0;" vertex="1" parent="1">
                    <mxGeometry x="41" y="548" width="810" height="601" as="geometry"/>
                </mxCell>
                <mxCell id="30" value="" style="rounded=1;whiteSpace=wrap;html=1;" vertex="1" parent="1">
                    <mxGeometry x="18" y="292.5" width="139" height="83" as="geometry"/>
                </mxCell>
                <mxCell id="31" value="&lt;div&gt;Notion API Call&lt;/div&gt;&lt;div&gt;Post&amp;nbsp;&lt;/div&gt;" style="text;html=1;align=center;verticalAlign=middle;whiteSpace=wrap;rounded=0;" vertex="1" parent="1">
                    <mxGeometry x="18" y="312" width="138" height="56" as="geometry"/>
                </mxCell>
                <mxCell id="32" value="" style="endArrow=classic;html=1;entryX=1;entryY=0.5;entryDx=0;entryDy=0;exitX=0;exitY=0.5;exitDx=0;exitDy=0;" edge="1" parent="1" source="10" target="31">
                    <mxGeometry width="50" height="50" relative="1" as="geometry">
                        <mxPoint x="735" y="504" as="sourcePoint"/>
                        <mxPoint x="785" y="454" as="targetPoint"/>
                    </mxGeometry>
                </mxCell>
                <mxCell id="33" value="" style="rounded=1;whiteSpace=wrap;html=1;" vertex="1" parent="1">
                    <mxGeometry x="950" y="474.5" width="139" height="73.5" as="geometry"/>
                </mxCell>
                <mxCell id="34" value="&lt;div&gt;&lt;span style=&quot;background-color: transparent;&quot;&gt;KaggleHub&lt;/span&gt;&lt;/div&gt;&lt;div&gt;&lt;span style=&quot;background-color: transparent;&quot;&gt;Department of State&lt;/span&gt;&lt;/div&gt;" style="text;html=1;align=center;verticalAlign=middle;whiteSpace=wrap;rounded=0;" vertex="1" parent="1">
                    <mxGeometry x="947" y="483.25" width="138" height="56" as="geometry"/>
                </mxCell>
                <mxCell id="36" value="" style="endArrow=classic;html=1;exitX=0.208;exitY=0.983;exitDx=0;exitDy=0;exitPerimeter=0;" edge="1" parent="1" source="16">
                    <mxGeometry width="50" height="50" relative="1" as="geometry">
                        <mxPoint x="735" y="504" as="sourcePoint"/>
                        <mxPoint x="1016" y="473" as="targetPoint"/>
                    </mxGeometry>
                </mxCell>
            </root>
        </mxGraphModel>
    </diagram>
</mxfile>